<?xml version="1.0" standalone="no"?>
<!DOCTYPE svg PUBLIC "-//W3C//DTD SVG 20010904//EN"
 "http://www.w3.org/TR/2001/REC-SVG-20010904/DTD/svg10.dtd">
<svg version="1.0" xmlns="http://www.w3.org/2000/svg"
 width="700.000000pt" height="700.000000pt" viewBox="0 0 700.000000 700.000000"
 preserveAspectRatio="xMidYMid meet">
<metadata>
Created by potrace 1.11, written by Peter Selinger 2001-2013
</metadata>
<g transform="translate(0.000000,700.000000) scale(0.100000,-0.100000)"
fill="#000000" stroke="none">
<path d="M3215 6759 c-390 -34 -762 -154 -929 -301 l-42 -36 -340 -4 c-321 -3
-342 -5 -402 -26 -211 -75 -340 -260 -331 -476 l4 -84 -56 -6 c-125 -15 -245
-103 -302 -224 l-32 -67 -3 -2181 -2 -2181 -133 -6 c-75 -3 -154 -12 -182 -21
-112 -34 -213 -136 -249 -250 -15 -46 -17 -91 -14 -317 3 -243 5 -267 23 -298
11 -19 33 -43 48 -55 l28 -21 3199 0 3199 0 28 21 c15 12 37 36 48 55 18 31
20 55 23 298 3 228 1 270 -14 318 -36 113 -137 214 -251 250 -27 8 -107 17
-180 20 l-133 6 0 2148 c0 1552 -3 2163 -11 2201 -34 160 -170 286 -328 304
l-56 6 4 84 c9 216 -120 401 -331 476 -60 21 -81 23 -402 26 l-340 4 -42 36
c-256 224 -898 353 -1499 301z m-760 -1729 c162 -42 299 -124 422 -253 89 -93
151 -198 193 -325 29 -85 34 -113 38 -232 3 -101 0 -155 -12 -213 -68 -330
-316 -590 -648 -679 -106 -28 -296 -30 -403 -4 -263 63 -477 230 -593 461 -84
168 -114 386 -78 565 32 158 108 307 220 427 136 146 290 231 489 269 97 18
269 11 372 -16z m2530 0 c383 -99 655 -449 655 -843 0 -106 -12 -183 -42 -277
-149 -463 -656 -718 -1115 -561 -134 46 -226 104 -333 211 -111 111 -173 209
-222 350 -32 93 -33 98 -33 270 0 172 1 176 34 272 108 314 359 532 684 594
97 18 269 11 372 -16z m288 -2515 c216 -56 367 -249 367 -470 0 -234 -153
-426 -382 -480 -54 -13 -298 -15 -1754 -15 -1103 0 -1710 4 -1745 10 -71 14
-183 68 -238 116 -24 21 -62 65 -83 98 -180 278 -36 654 283 740 83 22 3467
23 3552 1z"/>
<path d="M2150 4704 c-260 -51 -440 -265 -440 -524 0 -262 194 -484 456 -522
256 -37 503 126 578 381 20 67 21 207 2 276 -60 225 -253 380 -486 390 -47 2
-96 1 -110 -1z"/>
<path d="M4655 4699 c-186 -38 -351 -196 -401 -384 -19 -69 -18 -209 2 -276
75 -255 322 -418 578 -381 207 30 383 182 437 380 75 270 -72 550 -339 643
-67 24 -205 33 -277 18z"/>
<path d="M310 4809 c-304 -167 -402 -704 -194 -1059 60 -103 169 -200 252
-225 l22 -6 0 660 c0 522 -3 661 -12 661 -7 0 -38 -14 -68 -31z"/>
<path d="M6610 4179 l0 -660 23 6 c82 25 191 122 251 225 182 311 132 776
-107 997 -42 39 -133 93 -157 93 -7 0 -10 -213 -10 -661z"/>
</g>
</svg>
